HIERARCHY
ROOT Hips
{
	OFFSET 0.00000 0.00000 0.00000
	CHANNELS 6 Xposition Yposition Zposition Zrotation Yrotation Xrotation 
	JOINT LHipJoint
	{
		OFFSET 0 0 0
		CHANNELS 3 Zrotation Yrotation Xrotation
		JOINT LeftHip
		{
			OFFSET 1.48831 -1.59570 0.95625
			CHANNELS 3 Zrotation Yrotation Xrotation
			JOINT LeftKnee
			{
				OFFSET 2.20856 -6.06797 0.00000
				CHANNELS 3 Zrotation Yrotation Xrotation
				JOINT LeftAnkle
				{
					OFFSET 2.62924 -7.22379 0.00000
					CHANNELS 3 Zrotation Yrotation Xrotation
					JOINT LeftToe
					{
						OFFSET 0.16802 -0.46163 2.41673
						CHANNELS 3 Zrotation Yrotation Xrotation
						End Site
						{
							OFFSET 0.00000 -0.00000 1.23760
						}
					}
				}
			}
		}
	}
	JOINT RHipJoint
	{
		OFFSET 0 0 0
		CHANNELS 3 Zrotation Yrotation Xrotation
		JOINT RightHip
		{
			OFFSET -1.56796 -1.59570 0.95625
			CHANNELS 3 Zrotation Yrotation Xrotation
			JOINT RightKnee
			{
				OFFSET -2.29239 -6.29829 0.00000
				CHANNELS 3 Zrotation Yrotation Xrotation
				JOINT RightAnkle
				{
					OFFSET -2.66963 -7.33475 0.00000
					CHANNELS 3 Zrotation Yrotation Xrotation
					JOINT RightToe
					{
						OFFSET -0.18185 -0.49964 2.34359
						CHANNELS 3 Zrotation Yrotation Xrotation
						End Site
						{
							OFFSET -0.00000 -0.00000 1.20477
						}
					}
				}
			}
		}
	}
	JOINT lowerback
	{
		OFFSET 0 0 0
		CHANNELS 3 Zrotation Yrotation Xrotation
		JOINT Chest
		{
			OFFSET 0.03505 2.15832 -0.34324
			CHANNELS 3 Zrotation Yrotation Xrotation
			JOINT Chest2
			{
				OFFSET -0.01089 2.17963 0.04689
				CHANNELS 3 Zrotation Yrotation Xrotation
				JOINT lowerneck
				{
					OFFSET 0 0 0
					CHANNELS 3 Zrotation Yrotation Xrotation
					JOINT Neck
					{
						OFFSET 0.04686 1.69404 0.22159
						CHANNELS 3 Zrotation Yrotation Xrotation
						JOINT Head
						{
							OFFSET 0.00265 1.69305 -0.01513
							CHANNELS 3 Zrotation Yrotation Xrotation
							End Site
							{
								OFFSET -0.00415 1.80215 -0.03034
							}
						}
					}
				}
				JOINT LeftCollar
				{
					OFFSET 0 0 0
					CHANNELS 3 Zrotation Yrotation Xrotation
					JOINT LeftShoulder
					{
						OFFSET 3.67184 1.11724 -0.19002
CHANNELS 3 Zrotation Xrotation Yrotation
						JOINT LeftElbow
						{
OFFSET 0 -5.177140 -0.000000
CHANNELS 3 Zrotation Xrotation Yrotation
							JOINT LeftWrist
							{
OFFSET 0 -3.436790 -0.000000
CHANNELS 3 Zrotation Xrotation Yrotation
								JOINT lhand
								{
									OFFSET 0 0 0
CHANNELS 3 Zrotation Xrotation Yrotation
									JOINT LFingers
									{
OFFSET 0 -0.573120 -0.000000
CHANNELS 3 Zrotation Xrotation Yrotation
										End Site
										{
OFFSET 0 -0.462060 -0.000000
										}
									}
								}
								JOINT LThumb
								{
OFFSET 0 0.000000 0.000000
CHANNELS 3 Zrotation Xrotation Yrotation
									End Site
									{
OFFSET 0 -0.469120 0.469120
									}
								}
							}
						}
					}
				}
				JOINT RightCollar
				{
					OFFSET 0 0 0
					CHANNELS 3 Zrotation Yrotation Xrotation
					JOINT RightShoulder
					{
						OFFSET -3.59596 0.95831 -0.26050
CHANNELS 3 Zrotation Xrotation Yrotation
						JOINT RightElbow
						{
OFFSET 0 -5.239080 -0.000000
CHANNELS 3 Zrotation Xrotation Yrotation
							JOINT RightWrist
							{
OFFSET 0 -3.464850 -0.000000
CHANNELS 3 Zrotation Xrotation Yrotation
								JOINT rhand
								{
									OFFSET 0 0 0
CHANNELS 3 Zrotation Xrotation Yrotation
									JOINT RFingers
									{
OFFSET 0 -0.608750 -0.000000
CHANNELS 3 Zrotation Xrotation Yrotation
										End Site
										{
OFFSET 0 -0.490790 -0.000000
										}
									}
								}
								JOINT RThumb
								{
OFFSET 0 0.000000 0.000000
CHANNELS 3 Zrotation Xrotation Yrotation
									End Site
									{
OFFSET 0 -0.498290 0.498290
									}
								}
							}
						}
					}
				}
			}
		}
	}
}
MOTION
Frames: 6
Frame Time: 0.008333333333333333
1.717680 16.150808 -12.135076 180.486791 -39.365809 -180.686432 0.000000 0.000000 0.000000 -21.586334 6.172130 -2.469640 1.760988 8.349336 23.780273 1.449445 -3.730446 -21.849763 0.052725 -1.481893 -4.075834 0.000000 0.000000 0.000000 16.092410 24.921937 -21.105481 -5.285637 -13.698454 42.042652 -0.613336 1.829598 -14.280705 -0.007921 -0.573574 1.576239 3.519516 -0.302439 4.664576 -1.876707 -0.693932 6.835459 -3.930904 -0.299667 4.419622 9.678705 18.233252 11.352280 -16.098698 24.369906 -12.160548 -6.919404 12.724650 -2.202944 0.000000 0.000000 0.000000 5.538453 -10.349766 -42.310665 21.935147 -32.903618 6.550582 17.191137 -19.792861 -7.447516 0.000000 0.000000 0.000000 -7.125000 0.000000 0.000000 -8.205504 37.656133 -1.495405 0.000000 0.000000 0.000000 1.554631 3.505771 30.451557 -43.424510 -49.972861 -21.025281 -25.670919 6.786882 2.691271 0.000000 0.000000 0.000000 7.125000 0.000000 0.000000 0.752576 32.964595 0.221981
1.673127 16.159764 -12.261299 181.558788 -39.235786 -181.658260 0.000000 0.000000 0.000000 -20.467308 6.253679 -1.278233 1.688776 8.185283 23.278295 1.501436 -3.123831 -22.363655 0.069815 -1.705118 -4.691371 0.000000 0.000000 0.000000 17.636823 24.269884 -19.979861 -5.132748 -13.531695 41.392984 -0.632734 2.210535 -14.433517 -0.022879 -0.977299 2.686352 4.051712 -0.431514 3.587623 -1.308105 -0.843701 6.393862 -3.642966 -0.340416 4.548155 9.829593 18.166710 11.359439 -15.626958 24.371251 -11.673943 -6.776754 12.687679 -2.105433 0.000000 0.000000 0.000000 5.225535 -9.226342 -42.328845 21.710451 -32.648217 6.428929 17.264237 -19.786425 -7.418100 0.000000 0.000000 0.000000 -7.125000 0.000000 0.000000 -8.139484 37.630436 -1.488317 0.000000 0.000000 0.000000 1.592778 3.631941 29.881464 -43.133306 -49.820516 -20.802542 -25.664497 7.003030 2.700966 0.000000 0.000000 0.000000 7.125000 0.000000 0.000000 0.758026 32.975154 0.223304
1.605604 16.160948 -12.364180 181.988319 -37.475355 -182.250319 0.000000 0.000000 0.000000 -20.182509 7.088208 0.286116 1.522813 7.792069 22.084270 1.541709 -1.744694 -22.984470 0.070557 -1.713745 -4.715293 0.000000 0.000000 0.000000 18.628409 24.270468 -19.052189 -5.042520 -13.431554 41.006101 -0.599652 3.302695 -13.875890 -0.047446 -1.405740 3.865923 4.165657 -0.195541 2.614642 -0.924194 -0.522399 5.953375 -3.309835 -0.167361 4.663986 9.823384 18.166393 11.387818 -14.950890 24.438873 -11.446881 -6.585408 12.675877 -2.127287 0.000000 0.000000 0.000000 4.739103 -7.963816 -42.134254 21.439310 -32.337521 6.283295 17.206259 -19.789062 -7.438934 0.000000 0.000000 0.000000 -7.125000 0.000000 0.000000 -8.191518 37.648193 -1.494423 0.000000 0.000000 0.000000 1.471154 4.140350 29.395512 -43.019786 -49.760614 -20.715800 -25.482467 6.965770 2.343733 0.000000 0.000000 0.000000 7.125000 0.000000 0.000000 0.895910 32.574896 0.272666
1.543161 16.164321 -12.408456 181.883102 -35.627260 -182.196589 0.000000 0.000000 0.000000 -20.491560 7.993626 1.367505 1.339105 7.327053 20.687973 1.538596 -0.571338 -23.291158 0.060820 -1.590835 -4.376138 0.000000 0.000000 0.000000 18.739083 24.248474 -18.928938 -5.006807 -13.391428 40.852070 -0.526147 4.682143 -12.909157 -0.087820 -1.910953 5.259612 3.995947 -0.148351 1.817306 -0.665355 -0.440047 5.416288 -2.944837 -0.129477 4.555839 9.784450 18.227348 11.477358 -14.262415 24.583430 -11.347585 -6.401511 12.703743 -2.193385 0.000000 0.000000 0.000000 4.268757 -6.699231 -41.957654 21.063928 -31.902862 6.083636 17.265011 -19.648644 -7.423349 0.000000 0.000000 0.000000 -7.125000 0.000000 0.000000 -8.139602 37.635920 -1.487308 0.000000 0.000000 0.000000 1.369149 4.683288 28.797865 -43.060382 -49.782083 -20.746843 -24.916096 6.805117 1.766625 0.000000 0.000000 0.000000 7.125000 0.000000 0.000000 1.336993 31.925756 0.427816
1.482727 16.169066 -12.396838 181.891758 -33.330895 -182.030175 0.000000 0.000000 0.000000 -20.834546 9.091319 1.741515 1.215468 6.993334 19.695633 1.533070 0.351353 -23.552830 0.047921 -1.413321 -3.886952 0.000000 0.000000 0.000000 18.862351 25.547859 -18.785680 -4.954646 -13.332480 40.626213 -0.461061 5.193129 -12.103702 -0.105192 -2.091216 5.757883 4.052996 -0.006784 1.053217 -0.327247 -0.250799 4.976796 -2.622479 -0.031880 4.542574 9.800045 18.247685 11.460560 -13.568111 24.686524 -11.086604 -6.200402 12.707779 -2.194246 0.000000 0.000000 0.000000 3.721826 -5.816207 -42.199047 20.324583 -31.031401 5.697680 17.332841 -19.575274 -7.489847 0.000000 0.000000 0.000000 -7.125000 0.000000 0.000000 -8.092183 37.709055 -1.463844 0.000000 0.000000 0.000000 1.152591 5.009735 28.245621 -43.172209 -49.840977 -20.832250 -24.845098 7.048519 1.748954 0.000000 0.000000 0.000000 7.125000 0.000000 0.000000 1.393497 31.904944 0.446585
1.427055 16.176050 -12.334704 181.926801 -31.054293 -181.882950 0.000000 0.000000 0.000000 -21.251868 10.128941 1.739299 1.129115 6.748979 18.973871 1.508755 1.241078 -23.694471 0.045745 -1.379976 -3.794873 0.000000 0.000000 0.000000 18.847661 26.840343 -18.782145 -4.871394 -13.237504 40.264156 -0.381804 5.594803 -11.088356 -0.117255 -2.207606 6.079707 4.106147 0.047006 0.820769 0.100038 -0.166399 4.484877 -2.205838 -0.000515 4.164838 9.900201 18.275161 11.536030 -12.693010 24.829522 -10.994149 -5.984051 12.716065 -2.270753 0.000000 0.000000 0.000000 3.156346 -4.700303 -42.851390 20.002924 -30.645844 5.532810 17.265286 -19.705300 -7.638270 0.000000 0.000000 0.000000 -7.125000 0.000000 0.000000 -8.171529 37.858120 -1.448370 0.000000 0.000000 0.000000 0.960063 5.617831 27.856069 -43.677025 -50.103595 -21.218772 -24.806483 6.925440 1.777573 0.000000 0.000000 0.000000 7.125000 0.000000 0.000000 1.425322 31.935849 0.455780
